<?xml version="1.0" standalone="no"?>
<!DOCTYPE svg PUBLIC "-//W3C//DTD SVG 20010904//EN"
 "http://www.w3.org/TR/2001/REC-SVG-20010904/DTD/svg10.dtd">
<svg version="1.0" xmlns="http://www.w3.org/2000/svg"
 width="640.000000pt" height="640.000000pt" viewBox="0 0 640.000000 640.000000"
 preserveAspectRatio="xMidYMid meet">
<metadata>
Created by potrace 1.11, written by Peter Selinger 2001-2013
</metadata>
<g transform="translate(0.000000,640.000000) scale(0.100000,-0.100000)"
fill="#000000" stroke="none">
<path d="M686 6278 c-7 -132 -49 -1289 -67 -1863 -18 -548 -5 -1071 36 -1450
104 -955 447 -1584 1172 -2152 148 -116 473 -331 678 -449 94 -53 288 -157
432 -231 l262 -134 190 96 c1294 647 1922 1249 2199 2105 96 298 148 596 184
1060 16 210 16 1076 0 1480 -10 234 -62 1621 -62 1653 0 4 -1129 7 -2509 7
l-2509 0 -6 -122z m4874 -100 c0 -67 32 -944 52 -1438 16 -401 16 -1270 0
-1480 -47 -608 -142 -1010 -327 -1375 -129 -257 -282 -461 -511 -686 -335
-327 -760 -611 -1401 -937 l-172 -87 -98 48 c-294 145 -685 368 -898 510 -619
415 -1013 879 -1209 1422 -208 581 -256 1229 -201 2715 8 206 21 593 30 860 9
267 19 491 21 498 3 9 483 12 2359 12 l2355 0 0 -62z"/>
<path d="M1000 6073 c-13 -266 -46 -1210 -43 -1215 6 -10 4490 -10 4496 0 3 4
-6 255 -19 557 -13 303 -23 576 -24 608 l0 57 -2205 0 c-1213 0 -2205 -3
-2205 -7z m919 -363 c190 -219 219 -256 207 -270 -158 -187 -460 -530 -466
-528 -10 4 -474 527 -478 539 -2 5 29 47 70 92 40 45 150 167 242 270 163 182
169 188 186 170 10 -10 117 -133 239 -273z m3101 19 c129 -149 234 -273 234
-276 -3 -10 -467 -543 -473 -543 -11 0 -476 532 -476 545 0 12 464 544 475
545 3 0 111 -122 240 -271z m-1640 216 c101 -27 180 -74 260 -154 85 -85 129
-165 156 -277 21 -92 7 -175 -49 -288 -47 -94 -141 -194 -225 -239 -70 -38
-88 -29 -29 13 131 93 210 282 177 421 -44 190 -199 331 -395 360 -406 61
-705 -336 -496 -659 36 -55 98 -118 137 -140 10 -6 16 -14 12 -17 -14 -15
-130 60 -191 124 -97 101 -157 237 -157 356 1 62 34 163 80 239 71 117 213
224 346 261 69 19 304 19 374 0z m-95 -185 c228 -37 403 -259 367 -468 -23
-135 -119 -265 -250 -335 -68 -37 -68 -18 1 21 140 79 200 234 146 377 -30 81
-112 163 -194 195 -49 20 -78 24 -165 24 -93 0 -112 -3 -162 -26 -76 -35 -148
-104 -183 -175 -72 -144 -7 -320 148 -399 26 -13 47 -29 47 -35 0 -15 -115 49
-164 92 -123 109 -176 289 -127 431 75 218 290 338 536 298z"/>
<path d="M1520 5619 c-74 -83 -137 -155 -138 -160 -2 -5 48 -67 110 -137 63
-70 128 -142 144 -160 l29 -33 135 156 c74 86 135 160 135 165 0 11 -265 320
-274 320 -4 0 -68 -68 -141 -151z"/>
<path d="M4636 5616 c-76 -85 -138 -157 -138 -161 0 -4 65 -79 143 -167 l144
-160 20 25 c11 14 73 86 138 161 l119 136 -119 136 c-65 75 -126 147 -136 160
-10 13 -22 24 -26 24 -5 0 -70 -69 -145 -154z"/>
<path d="M4335 4080 c-616 -363 -1120 -665 -1120 -670 0 -11 2038 -1210 2055
-1210 12 0 71 191 104 330 88 376 124 860 112 1520 -7 430 -17 690 -25 690 -3
0 -510 -297 -1126 -660z"/>
<path d="M927 4603 c-4 -70 -10 -310 -13 -533 -11 -712 27 -1207 122 -1585 35
-136 83 -285 93 -285 5 0 334 192 732 426 398 234 858 505 1022 601 164 97
296 179 295 184 -3 7 -2202 1302 -2234 1315 -7 3 -13 -37 -17 -123z"/>
<path d="M2970 4713 c-14 -2 -51 -14 -83 -25 -67 -24 -172 -22 -225 6 -33 17
-33 17 -70 -14 -20 -17 -44 -37 -53 -45 -9 -8 -28 -15 -42 -15 l-27 0 0 -360
0 -360 305 0 c294 0 305 -1 315 -20 32 -59 138 -65 194 -11 l32 31 307 0 307
0 0 233 c0 127 -3 289 -7 360 l-6 127 -29 0 c-16 0 -31 6 -34 15 -4 8 -13 15
-21 15 -8 0 -28 14 -43 31 -29 30 -29 30 -62 13 -18 -9 -63 -19 -100 -22 -55
-4 -80 0 -130 19 -92 34 -177 32 -248 -7 l-55 -30 -55 28 c-55 27 -124 40
-170 31z m179 -46 l41 -27 0 -325 c0 -179 -3 -325 -7 -325 -4 0 -26 9 -50 21
-68 33 -150 36 -230 9 -53 -18 -81 -21 -137 -18 -39 3 -83 11 -98 18 l-28 13
0 324 c0 304 1 324 18 319 98 -30 147 -29 262 5 92 26 175 21 229 -14z m343 7
c111 -27 135 -27 236 2 l22 6 0 -325 0 -326 -52 -16 c-69 -20 -129 -19 -213 5
-103 29 -154 25 -267 -25 -17 -7 -18 12 -18 317 0 365 -4 345 77 374 55 19 93
17 215 -12z"/>
<path d="M2975 4549 c-22 -3 -67 -14 -99 -24 -42 -12 -79 -16 -128 -13 -82 6
-91 -8 -12 -18 40 -5 75 -2 122 11 156 40 192 42 275 10 9 -4 17 -3 17 3 0 22
-109 41 -175 31z"/>
<path d="M2885 4358 c-43 -14 -80 -18 -132 -16 -72 3 -95 -4 -50 -16 40 -10
111 -6 172 10 121 33 137 35 189 25 28 -5 59 -13 69 -16 9 -4 17 -3 17 3 0 34
-172 41 -265 10z"/>
<path d="M2920 4195 c-79 -27 -143 -36 -193 -26 -26 4 -47 5 -47 1 0 -27 137
-27 215 0 65 22 164 26 214 9 39 -14 52 -6 19 12 -36 19 -156 21 -208 4z"/>
<path d="M3345 4552 c-49 -4 -105 -22 -105 -33 0 -7 7 -8 18 -4 9 4 38 12 65
18 48 10 59 8 210 -29 47 -11 84 -14 122 -9 79 9 68 23 -13 17 -49 -3 -86 1
-128 13 -71 22 -129 31 -169 27z"/>
<path d="M3268 4368 c-16 -5 -28 -14 -28 -20 0 -6 8 -7 18 -3 72 28 144 25
256 -10 50 -15 133 -20 174 -9 45 13 20 21 -51 16 -55 -3 -88 1 -141 17 -73
22 -180 27 -228 9z"/>
<path d="M3278 4198 c-21 -6 -38 -15 -38 -20 0 -6 9 -7 23 -3 58 19 153 17
221 -4 89 -28 226 -28 226 -1 0 4 -22 3 -49 -2 -48 -8 -92 -2 -216 31 -49 13
-117 12 -167 -1z"/>
<path d="M3338 3090 c-53 -51 -53 -51 -104 -44 -81 10 -158 -11 -191 -51 -33
-40 -57 -50 -141 -60 -39 -4 -65 -12 -69 -21 -6 -16 42 -116 67 -139 14 -12
27 -15 50 -10 24 5 35 3 45 -12 13 -16 14 -16 15 -1 0 9 8 24 17 33 15 16 18
15 34 -6 l18 -24 10 28 c13 35 34 35 50 0 l13 -28 14 28 c17 32 15 31 59 13
40 -17 55 -42 55 -91 0 -25 -8 -44 -26 -62 l-26 -26 -18 23 -17 23 -11 -32
c-12 -35 -37 -41 -47 -11 -8 24 -21 26 -29 5 -8 -22 -34 -18 -47 7 -10 19 -13
20 -23 6 -9 -12 -21 -14 -59 -8 -34 5 -53 3 -67 -7 -28 -20 -25 -51 5 -63 53
-20 53 -101 -1 -151 -20 -19 -36 -24 -75 -23 -27 0 -55 6 -61 12 -27 27 -41
14 -35 -30 6 -45 51 -98 82 -98 20 0 19 -16 -1 -24 -42 -16 -104 4 -127 41
-16 25 -27 12 -27 -31 0 -69 59 -126 130 -126 16 0 30 -4 30 -10 0 -18 -125
-11 -196 11 -159 48 -277 133 -305 216 -14 45 -7 72 36 123 61 73 59 120 -8
151 -41 18 -88 25 -100 13 -3 -3 8 -18 25 -33 l30 -27 -26 -38 c-14 -21 -26
-49 -26 -62 0 -13 -3 -24 -6 -24 -3 0 -26 17 -50 39 -59 52 -127 65 -184 36
-32 -17 -63 -59 -35 -49 25 10 85 -5 85 -21 0 -8 20 -26 44 -40 44 -26 61 -48
50 -66 -10 -16 -44 -10 -104 21 -70 35 -101 37 -157 10 -37 -18 -83 -62 -83
-80 0 -4 22 -5 48 -2 36 3 51 0 61 -12 10 -12 31 -16 80 -16 78 0 106 -13 77
-35 -13 -10 -44 -14 -110 -12 -94 1 -119 -6 -163 -46 -32 -29 -29 -33 22 -29
26 2 62 -3 84 -11 41 -17 97 -10 152 18 15 8 38 15 50 15 22 0 22 -1 -6 -30
-16 -16 -51 -38 -78 -48 -51 -20 -52 -24 -4 -36 34 -8 140 10 180 31 16 8 32
11 35 8 9 -9 -67 -75 -84 -75 -7 0 -16 -5 -20 -11 -14 -23 137 -5 199 24 31
14 57 21 57 15 0 -18 -40 -67 -60 -73 -35 -11 -21 -25 24 -25 24 0 78 7 120
16 41 8 88 14 103 12 22 -2 10 -10 -62 -38 -49 -19 -130 -59 -179 -89 -125
-75 -143 -81 -186 -67 -27 9 -37 19 -48 51 -8 22 -19 53 -24 68 -6 15 -23 34
-39 42 -41 22 -127 19 -166 -5 -43 -26 -42 -40 2 -40 23 0 41 -7 53 -21 9 -11
41 -43 70 -71 28 -28 52 -58 52 -66 0 -15 -15 -14 -115 6 -27 6 -53 4 -82 -6
-47 -15 -103 -71 -103 -103 0 -18 2 -19 30 -4 34 18 76 20 86 4 6 -11 89 -7
147 6 12 3 29 1 37 -5 26 -16 -11 -41 -86 -56 -56 -11 -74 -20 -96 -46 -30
-35 -44 -84 -34 -123 7 -27 26 -35 26 -10 0 19 36 41 80 49 20 3 57 24 84 46
72 60 83 51 45 -36 -19 -42 -20 -53 -10 -98 18 -79 81 -133 73 -62 -2 21 4 48
17 74 13 26 21 60 21 94 0 67 6 75 58 86 23 6 58 19 77 31 20 12 38 21 40 21
11 0 -19 -58 -42 -82 -15 -15 -24 -30 -22 -33 11 -10 86 19 126 48 22 18 58
56 80 85 l38 53 3 -36 c2 -19 -4 -50 -12 -67 -9 -17 -14 -33 -12 -35 2 -3 21
3 41 13 45 21 88 78 111 146 15 47 18 50 30 33 17 -22 18 -78 4 -106 -15 -28
10 -25 42 4 39 36 60 74 73 130 l13 52 17 -40 c11 -25 15 -53 12 -77 -3 -21
-1 -38 4 -38 5 0 29 19 53 43 33 31 48 56 61 99 9 32 14 62 10 68 -3 5 -2 10
3 10 26 0 30 -92 6 -148 -8 -20 -26 -49 -40 -63 -23 -24 -24 -26 -6 -42 58
-52 139 -57 325 -18 48 10 87 16 87 14 0 -2 -37 -22 -83 -44 -76 -36 -180 -63
-210 -54 -58 17 -65 16 -77 -20 -9 -27 -8 -47 4 -95 23 -90 21 -136 -8 -165
-62 -62 -230 -53 -293 14 -11 12 -32 53 -47 91 -33 83 -59 106 -130 115 -44 6
-63 3 -102 -15 l-49 -23 38 -8 c48 -11 77 -26 77 -41 0 -6 25 -37 55 -69 87
-91 67 -107 -47 -38 -63 38 -72 41 -126 37 -39 -3 -69 -11 -90 -27 -43 -31
-40 -41 13 -41 37 0 47 -4 62 -26 22 -34 70 -54 126 -54 24 0 52 -6 62 -14 18
-13 18 -14 -4 -26 -19 -9 -40 -9 -101 1 -70 11 -83 10 -124 -5 -31 -12 -51
-28 -61 -46 -21 -41 -20 -53 4 -40 28 15 52 12 73 -7 24 -21 99 -21 150 1 49
21 108 21 108 1 0 -9 -16 -25 -35 -36 -43 -26 -55 -46 -55 -97 0 -26 6 -45 20
-57 19 -18 20 -17 20 7 0 27 24 54 55 60 10 1 34 23 53 48 19 25 39 47 44 49
5 2 26 -13 46 -32 21 -20 50 -41 65 -46 31 -12 96 -14 121 -5 19 7 21 24 3 24
-16 0 -73 58 -65 66 4 3 19 -1 35 -9 36 -19 106 -30 133 -22 20 6 20 7 -5 27
-32 25 -48 64 -37 85 8 14 10 14 15 0 8 -21 79 -57 112 -57 27 0 31 10 14 42
-15 27 -4 65 24 79 12 7 65 16 117 20 66 6 102 14 119 27 40 29 37 41 -7 35
-74 -10 -109 61 -56 114 23 23 31 25 92 21 37 -3 75 -8 85 -13 14 -6 17 -2 17
31 0 23 13 69 32 111 45 100 64 98 33 -3 -33 -108 -17 -147 83 -203 106 -59
118 -127 40 -215 -47 -54 -130 -106 -170 -106 -33 0 -59 24 -87 79 -12 22 -31
47 -43 55 -29 21 -117 21 -146 0 -29 -20 -28 -34 3 -34 15 0 31 -10 41 -26 10
-14 37 -39 61 -55 72 -50 23 -70 -62 -25 -38 20 -55 24 -98 20 -60 -6 -95 -21
-108 -45 -8 -15 -4 -16 32 -12 32 5 44 1 65 -18 17 -16 46 -27 90 -34 35 -6
65 -15 66 -20 2 -21 -42 -32 -95 -23 -77 13 -132 2 -172 -34 -39 -33 -49 -66
-16 -48 26 13 64 13 96 -2 21 -9 39 -8 95 6 71 19 100 15 80 -9 -7 -8 -27 -19
-45 -25 -45 -15 -112 -89 -120 -133 -11 -56 2 -61 44 -17 24 25 47 40 62 40
30 0 68 25 103 67 15 18 57 47 94 65 65 32 67 33 194 30 100 -2 135 1 158 13
37 19 39 35 5 35 -28 0 -89 23 -98 36 -3 5 29 9 71 9 62 1 86 5 122 25 l45 24
-44 8 c-24 4 -55 15 -70 25 l-26 18 82 6 c89 7 159 38 189 85 22 32 16 36 -31
23 -28 -8 -49 -8 -77 0 -49 15 -48 27 4 35 60 10 104 41 135 94 14 26 37 62
50 80 l24 32 -23 0 c-13 0 -45 -16 -72 -35 -70 -50 -75 -47 -60 28 8 34 14 79
14 101 0 35 2 38 23 32 88 -27 157 -14 218 41 72 65 87 159 39 258 -25 52
-115 132 -255 227 -49 34 -120 86 -157 116 -117 94 -147 198 -79 271 32 35
100 55 150 46 96 -17 222 -102 320 -215 88 -101 110 -160 72 -194 -25 -23 -59
-13 -67 20 -7 28 -21 23 -35 -13 -27 -71 57 -128 119 -80 9 7 12 -2 12 -39 0
-107 48 -189 140 -237 49 -26 62 -28 126 -25 86 6 151 39 190 98 45 68 44 171
-1 216 -32 32 -47 30 -29 -3 18 -37 18 -77 -2 -119 -19 -40 -34 -44 -34 -10 0
28 -20 51 -51 61 -27 9 -33 1 -20 -23 36 -68 -37 -155 -100 -121 -19 10 -21
17 -16 72 6 70 -8 115 -44 141 -23 16 -23 16 28 14 61 -3 102 21 114 65 8 30
3 33 -25 12 -11 -8 -36 -15 -56 -15 -47 0 -95 36 -158 120 -115 152 -243 268
-357 321 -80 38 -195 50 -260 29 -58 -19 -121 -83 -141 -142 -45 -137 36 -273
242 -408 147 -96 233 -162 259 -201 56 -80 40 -169 -36 -189 -62 -17 -139 4
-139 38 0 37 -59 138 -104 180 -56 52 -93 69 -203 93 -99 22 -226 71 -270 105
-18 14 -43 43 -55 64 -15 27 -30 40 -44 40 -27 0 -88 41 -92 62 -3 15 1 14 35
-3 46 -23 104 -24 149 -3 44 21 43 34 -2 34 -41 0 -94 45 -94 79 l0 20 35 -21
c44 -25 125 -22 169 7 l29 19 -39 9 c-45 9 -80 38 -89 74 -8 34 -3 36 31 18
38 -20 108 -19 139 1 33 22 31 34 -4 34 -31 0 -91 42 -91 64 0 7 -19 21 -42
31 -24 10 -46 20 -49 22 -12 7 -29 -59 -29 -110 0 -49 0 -49 -27 -42 -41 10
-71 32 -93 67 l-19 32 -11 -29 c-6 -16 -10 -49 -9 -72 2 -23 0 -45 -3 -49 -13
-12 -96 34 -119 67 l-23 33 -8 -34 c-4 -19 -4 -45 -1 -57 4 -18 1 -23 -15 -23
-25 0 -92 73 -92 101 0 18 3 17 26 -10 14 -17 29 -31 34 -31 4 0 10 18 14 40
3 23 18 54 35 72 l28 31 11 -46 c8 -28 22 -53 39 -67 l27 -21 14 59 c14 66 71
148 72 104 0 -28 15 -59 43 -89 26 -29 37 -29 37 0 0 36 28 123 45 137 11 9
22 5 56 -22 37 -30 48 -33 104 -33 49 0 70 5 91 21 31 22 70 71 63 78 -2 2
-26 -1 -52 -7 -39 -9 -53 -8 -82 6 -47 22 -45 42 4 43 53 2 110 31 132 68 20
33 25 82 9 106 -8 12 -12 11 -32 -7 -13 -11 -33 -26 -45 -32 -42 -21 -153 -8
-153 19 0 5 13 10 29 10 36 0 91 44 91 72 0 15 -4 18 -17 13 -29 -12 -100 -18
-127 -11 -27 7 -36 26 -12 26 18 0 76 48 76 63 0 8 -17 11 -51 9 -27 -2 -63 1
-80 8 -28 12 -29 15 -29 76 0 36 -4 64 -10 64 -6 0 -34 -23 -62 -50z m-136
-144 l38 -12 -50 -21 -50 -21 -6 24 c-8 30 2 58 17 48 7 -4 29 -12 51 -18z"/>
<path d="M2763 2826 c-46 -58 -18 -124 62 -146 31 -9 75 -11 137 -6 99 7 268
42 268 57 0 4 -12 6 -27 4 -218 -38 -369 -32 -399 16 -5 8 -11 34 -14 59 l-5
45 -22 -29z"/>
</g>
</svg>
